PathFileType        4      (X/Y/Z)      C:\Users\pc\Desktop\IMUTRC\Sujet_03\Sujet_03_velo_100.trc         
DataRate	CameraRate	NumFrames	NumMarkers	Units	OrigDataRate	OrigDataStartFrame	OrigNumFrames
60.0	60.0	4	64	mm	60.0	829	947
Frame#	Time	pHipOrigin			pRightASI			pLeftASI			pRightCSI			pLeftCSI			pRightIschialTub			pLeftIschialTub			pSacrum			pL5SpinalProcess			pL3SpinalProcess			pT12SpinalProcess			pIJ			pT4SpinalProcess			pT8SpinalProcess			pPX			pC7SpinalProcess			pTopOfHead			pRightAuricularis			pLeftAuricularis			pBackOfHead			pRightAcromion			pLeftAcromion			pRightArmLatEpicondyle			pRightArmMedEpicondyle			pLeftArmLatEpicondyle			pLeftArmMedEpicondyle			pRightUlnarStyloid			pRightRadialStyloid			pRightOlecranon			pLeftUlnarStyloid			pLeftRadialStyloid			pLeftOlecranon			pRightTopOfHand			pRightPinky			pRightBallHand			pLeftTopOfHand			pLeftPinky			pLeftBallHand			pRightGreaterTrochanter			pRightKneeLatEpicondyle			pRightKneeMedEpicondyle			pRightPatella			pLeftGreaterTrochanter			pLeftKneeLatEpicondyle			pLeftKneeMedEpicondyle			pLeftPatella			pRightTibialTub			pRightLatMalleolus			pRightMedMalleolus			pLeftTibialTub			pLeftLatMalleolus			pLeftMedMalleolus			pRightHeelFoot			pRightFirstMetatarsal			pRightFifthMetatarsal			pRightPivotFoot			pRightHeelCenter			pRightToe			pLeftHeelFoot			pLeftFirstMetatarsal			pLeftFifthMetatarsal			pLeftPivotFoot			pLeftHeelCenter			pLeftToe			
		X1	Y1	Z1	X2	Y2	Z2	X3	Y3	Z3	X4	Y4	Z4	X5	Y5	Z5	X6	Y6	Z6	X7	Y7	Z7	X8	Y8	Z8	X9	Y9	Z9	X10	Y10	Z10	X11	Y11	Z11	X12	Y12	Z12	X13	Y13	Z13	X14	Y14	Z14	X15	Y15	Z15	X16	Y16	Z16	X17	Y17	Z17	X18	Y18	Z18	X19	Y19	Z19	X20	Y20	Z20	X21	Y21	Z21	X22	Y22	Z22	X23	Y23	Z23	X24	Y24	Z24	X25	Y25	Z25	X26	Y26	Z26	X27	Y27	Z27	X28	Y28	Z28	X29	Y29	Z29	X30	Y30	Z30	X31	Y31	Z31	X32	Y32	Z32	X33	Y33	Z33	X34	Y34	Z34	X35	Y35	Z35	X36	Y36	Z36	X37	Y37	Z37	X38	Y38	Z38	X39	Y39	Z39	X40	Y40	Z40	X41	Y41	Z41	X42	Y42	Z42	X43	Y43	Z43	X44	Y44	Z44	X45	Y45	Z45	X46	Y46	Z46	X47	Y47	Z47	X48	Y48	Z48	X49	Y49	Z49	X50	Y50	Z50	X51	Y51	Z51	X52	Y52	Z52	X53	Y53	Z53	X54	Y54	Z54	X55	Y55	Z55	X56	Y56	Z56	X57	Y57	Z57	X58	Y58	Z58	X59	Y59	Z59	X60	Y60	Z60	X61	Y61	Z61	X62	Y62	Z62	X63	Y63	Z63	X64	Y64	Z64	
829	13.8	0.0	1249.98655	7.653960137173716E-14	91.75746000000001	1336.84797	132.8841500000001	88.53182999999999	1326.1343	-141.3514099999999	63.76366000000001	1412.70772	106.27276000000009	61.114039999999996	1403.89485	-120.09685999999992	-68.14129	1209.72386	59.098020000000076	-69.5237	1205.34623	-54.14438999999992	-60.82604	1287.19642	-0.7488099999999174	0.7488099999999996	1377.11066	-4.838429999999915	72.40372	1473.82176	-12.211289999999913	140.42981	1560.51038	-20.04493999999991	411.03654	1577.5025	-35.36664999999993	296.75733	1690.45691	-36.806659999999916	217.67196	1637.57973	-28.800209999999915	306.08859	1500.77875	-24.307369999999924	344.73847	1720.86992	-40.320289999999915	596.27947	1809.63216	-86.86141999999992	528.08058	1756.81258	3.513630000000075	497.37956	1752.55015	-137.54978999999992	482.57626	1802.48971	-61.920439999999914	351.59292	1728.06998	168.8844100000001	328.09195	1707.10343	-247.9697799999999	437.76314	1439.26151	169.57561000000007	416.73898	1430.73665	113.41521000000006	416.62378	1423.53659	-238.17770999999993	405.3917	1420.13817	-178.73407999999995	525.25816	1197.85818	119.63606000000004	574.33371	1219.80394	122.28568000000004	400.61087	1430.27584	142.79142000000004	516.2149	1187.3173	-191.29096999999993	563.44724	1209.49346	-204.42385999999993	384.71316	1416.73975	-204.48145999999994	711.8259	1091.18221	186.97094	618.11003	1103.3935	154.19630000000004	573.41211	1164.50754	120.84567000000004	682.39209	1080.00773	-298.25494	599.62029	1092.44942	-243.47693999999998	563.56244	1154.31227	-202.11984999999999	12.96009000000001	1226.42798	166.81079000000008	326.93994	958.47086	170.61242000000001	342.20405	965.72852	92.39106000000004	361.09699	997.81195	137.26178000000002	7.372849999999989	1230.28721	-170.2092199999999	285.87085	929.84346	-221.01277999999996	302.17176	923.27701	-142.96421999999998	324.80873	959.21967	-182.93890999999996	383.33075	922.0098	136.62818000000001	240.07852	524.85496	149.06987	249.69779	524.91256	82.94459000000002	311.67583	868.84462	-181.38369999999998	-13.824100000000007	611.77398	-101.66472999999996	6.681649999999998	614.3084	-38.01626999999996	196.0718	451.24163	75.80214000000001	367.89383	436.09272	64.28206	351.42012	406.25571	138.47139	382.46674	417.48779	103.73834	235.35529	444.96319	82.08059000000002	463.74092	402.62688	115.89203	-75.16854	579.28735	-13.536099999999958	65.83727	479.17783	-15.321709999999973	24.825779999999998	454.98566	-81.67737999999997	62.55405	451.99044	-52.30116999999998	-45.73473	553.13676	-22.17615999999996	122.57368	396.40604	-69.12049999999999	
830	13.817	0.0	1249.98655	7.653960137173716E-14	93.02467000000001	1336.44477	132.3081500000001	86.91901999999999	1326.8831	-141.9850199999999	64.68526	1412.36211	106.27276000000009	59.616429999999994	1404.47086	-120.09685999999992	-67.50768	1209.37826	59.61643000000008	-69.9845	1205.46143	-53.56837999999992	-60.88364	1287.08122	0.05760000000008254	0.4607999999999997	1377.11066	-4.3776299999999155	71.88531	1473.99456	-12.153689999999912	139.681	1560.79838	-20.44814999999991	410.05734	1578.53931	-37.78586999999993	295.49012	1691.20571	-38.30426999999992	216.63515	1638.09813	-29.721809999999916	305.45499	1501.52755	-25.920189999999927	343.41366	1721.67633	-42.278699999999915	594.60906	1811.12977	-89.28063999999993	526.58297	1758.25259	1.0944100000000756	495.93955	1753.75976	-139.9113999999999	480.96344	1803.69932	-64.39725999999992	350.95931	1728.81878	167.32920000000007	325.96073	1707.44903	-249.6977899999999	437.18713	1439.83751	168.59641000000005	416.10538	1431.19745	112.43601000000005	415.01097	1424.1702	-239.27210999999994	404.12449	1421.05978	-179.71328999999994	524.56696	1198.26138	119.57846000000005	573.70011	1220.20714	122.28568000000004	399.97726	1430.85185	141.75462000000005	515.12049	1188.29651	-191.11816999999994	562.35283	1210.53027	-204.25105999999994	383.27314	1417.48855	-205.51826999999994	711.13469	1091.58542	187.08614	617.41882	1103.7391	154.25390000000002	572.7785	1164.85314	120.84567000000004	681.52808	1080.87174	-297.62133	598.69869	1093.42863	-242.95853999999997	562.52563	1155.34907	-201.77424999999997	12.61449000000001	1224.52717	166.4651900000001	308.04701	936.29471	165.31318000000002	323.25352	943.26436	87.14942000000005	344.56567	973.56217	132.13535000000002	6.04803999999999	1231.66962	-170.4396199999999	300.67415	948.33319	-227.92482999999996	318.58788	942.16995	-150.22187999999997	338.40242	979.66782	-190.25415999999998	365.47462	900.64005	132.59615000000002	231.15046	500.48998	146.13225000000003	241.46093	500.37478	80.06457000000002	325.32713	887.67996	-187.48933999999997	-5.817640000000006	639.07658	-104.37194999999996	14.400099999999998	642.4174	-40.665889999999955	186.16453	427.56786	72.40372000000002	357.69856	409.71173	60.25003000000001	340.87924	379.58672	134.26656	372.04106	390.5884	99.59111	225.39041	420.59821	78.45176000000001	453.14245	374.34508	111.3416	-67.79569	607.91475	-15.840109999999958	71.94292	506.13482	-17.45291999999997	30.470619999999997	482.05785	-83.57819999999997	68.25649	478.77463	-54.25958999999998	-38.76508	581.36096	-24.42256999999996	127.58491	422.21102	-71.02130999999999	
831	13.833	0.0	1249.98655	7.653960137173716E-14	94.81028000000002	1336.27197	131.0985400000001	84.78780999999998	1327.22871	-143.0794199999999	66.01007	1412.24691	105.69676000000008	57.71560999999999	1404.75886	-120.61525999999992	-66.58608	1209.20546	60.48043000000008	-70.73331	1205.51903	-52.64677999999992	-60.94124	1287.02362	0.9792100000000826	0.2879999999999997	1377.11066	-4.204829999999916	71.48211	1474.10976	-12.672089999999914	139.0474	1561.02878	-21.54254999999991	409.25093	1579.23051	-41.12668999999993	294.51091	1691.66652	-40.66588999999991	215.82875	1638.44373	-31.449829999999913	304.87898	1502.04596	-28.454599999999925	342.26165	1722.25233	-45.043519999999916	593.16905	1812.51218	-92.39105999999992	525.14296	1759.4046	-2.073609999999924	494.78754	1754.68137	-143.13702999999992	479.46583	1804.62092	-67.62287999999991	350.49851	1729.16438	164.8523800000001	323.94472	1707.50663	-252.2898099999999	436.43833	1440.01031	166.98360000000005	415.52938	1431.31265	110.76559000000006	413.11016	1424.4582	-241.00012999999996	402.74208	1421.75098	-181.38369999999995	523.87575	1198.26138	118.82965000000004	572.9513	1220.14954	121.59447000000004	399.34366	1430.96705	140.02660000000006	513.79568	1189.04532	-191.34856999999994	560.97042	1211.22147	-204.59666999999993	381.60273	1417.94935	-207.24627999999996	710.32829	1091.58542	186.45254	616.67002	1103.7391	153.56270000000004	572.0297	1164.85314	120.15446000000004	680.37607	1081.44775	-297.44853	597.48908	1094.06224	-242.78573999999998	561.25842	1156.09788	-201.88944999999998	13.13289000000001	1223.54796	166.2347900000001	288.17486	915.78896	160.18675000000002	302.63257	921.8946	81.79259000000005	326.65194	950.57961	126.49051000000004	3.801629999999989	1232.41843	-170.6124199999999	313.86465	967.68693	-235.24007999999998	333.96719	962.67569	-157.99792999999997	350.49851	1001.26797	-198.43341999999998	346.00568	880.0767	127.58491000000004	216.80795	478.19862	141.06341000000003	227.69443	478.02582	75.11094000000001	338.74803	907.8977	-193.76778999999996	4.838429999999994	663.95996	-107.88556999999996	24.710579999999997	668.33759	-44.237119999999955	170.32442	407.17732	66.52848000000002	341.39764	384.82836	54.66279	323.54152	354.41534	128.33372	355.04894	364.89861	93.77347	209.3199	399.11326	72.63412000000001	435.68952	346.29368	105.63915999999999	-57.02441	633.20133	-19.29613999999996	82.71419	531.42141	-21.88815999999997	40.953889999999994	507.63244	-87.89822999999997	78.85496	504.23401	-58.75241999999998	-27.9938	606.70515	-28.051399999999965	138.12579	447.72801	-75.91733999999998	
832	13.85	0.0	1249.98655	7.653960137173716E-14	96.48069000000001	1336.04157	130.0041300000001	82.94458999999999	1327.51671	-144.0010299999999	67.33488	1412.07411	105.12075000000009	56.102799999999995	1405.04686	-121.07606999999992	-65.77967	1209.09026	61.286840000000076	-71.36691	1205.57663	-51.84036999999992	-60.94124	1287.02362	1.8432100000000826	0.17279999999999976	1377.11066	-4.089629999999915	71.19411	1474.16736	-13.132889999999913	138.64419	1561.14398	-22.52175999999991	408.73253	1579.57611	-44.179519999999926	293.8773	1691.89692	-42.79710999999992	215.25274	1638.61654	-33.06263999999992	304.47578	1502.27636	-30.758619999999926	341.57045	1722.54034	-47.57793999999991	592.13224	1813.43379	-95.15587999999993	524.16375	1760.15341	-4.9536399999999245	494.03874	1755.25737	-146.0746499999999	478.42903	1805.19693	-70.61810999999992	350.49851	1729.27958	162.6059600000001	322.44711	1707.50663	-254.5938199999999	435.86232	1439.89511	165.60119000000006	415.06857	1431.08225	109.38318000000005	411.61255	1424.5158	-242.38253999999995	401.53248	1422.15419	-182.65090999999995	523.12695	1197.97338	118.36885000000004	572.2025	1219.80394	121.24887000000004	398.76766	1430.85185	138.58659000000006	512.47087	1189.44852	-191.29096999999993	559.70321	1211.62468	-204.65426999999994	380.22032	1418.23736	-208.51348999999993	709.52188	1091.23982	186.22213	615.86361	1103.4511	153.27470000000002	571.28089	1164.56514	119.80886000000004	679.16646	1081.56295	-296.93013	596.27947	1094.35024	-242.38253999999998	559.93361	1156.50108	-201.65903999999998	13.766500000000011	1222.68396	165.94679000000008	269.28193	898.62404	155.06031000000002	282.76043	904.03847	76.37815000000005	309.25661	931.05307	120.73046000000004	1.9008099999999897	1232.93683	-170.6700199999999	325.73033	986.92547	-241.51852999999997	347.56089	983.12384	-164.67957999999996	360.98179	1022.63772	-205.40306999999999	327.51595	861.99017	122.05527000000004	199.75823	459.65129	136.05217000000002	210.64471	459.47849	70.04210000000002	351.65052	928.00025	-199.12462999999997	17.913729999999994	684.2929	-111.85999999999996	37.32507	689.70734	-48.096339999999955	151.08588	390.934	60.82604000000001	321.2951	363.113	48.78755	302.45977	332.52718	122.11287	334.31279	342.31925	87.66783	189.79336	381.54513	66.87408000000002	414.20457	321.0071	99.36070999999998	-43.25791	652.90068	-23.040169999999957	97.6327	552.73356	-27.41779999999997	55.75719999999999	529.11739	-93.42786999999997	93.83107	525.83417	-64.57005999999997	-13.996900000000002	626.75009	-32.25622999999997	153.6203	470.36497	-82.59898999999999	
